<svg width="2401" height="596" viewBox="0 0 2401 596" fill="none" xmlns="http://www.w3.org/2000/svg">
<g clip-path="url(#clip0_95_18)">
<g filter="url(#filter0_d_95_18)">
<path d="M674.104 268.304C545.304 313.104 275.604 316.5 162.604 373C85.7519 411.426 64.6361 500.501 58.9909 553.557C56.5015 576.954 75.6318 595.5 99.1602 595.5H162.604H2080.6H2283.84C2316.49 595.5 2342.77 569.375 2338.61 536.992C2329.52 466.267 2300.01 349.094 2204.6 287.5C2102.1 221.325 1958.6 168.204 1784.6 113.804C1567.1 45.8037 1533.1 75.3037 1469.1 91.3037C1405.1 107.304 1277.6 167.304 1100.1 131.304C922.604 95.3038 835.104 212.304 674.104 268.304Z" fill="#FFE382"/>
</g>
</g>
<defs>
<filter id="filter0_d_95_18" x="33.7725" y="46" width="2330.27" height="574.5" filterUnits="userSpaceOnUse" color-interpolation-filters="sRGB">
<feFlood flood-opacity="0" result="BackgroundImageFix"/>
<feColorMatrix in="SourceAlpha" type="matrix" values="0 0 0 0 0 0 0 0 0 0 0 0 0 0 0 0 0 0 127 0" result="hardAlpha"/>
<feOffset/>
<feGaussianBlur stdDeviation="12.5"/>
<feComposite in2="hardAlpha" operator="out"/>
<feColorMatrix type="matrix" values="0 0 0 0 0.690196 0 0 0 0 0.564706 0 0 0 0 0.12549 0 0 0 0.25 0"/>
<feBlend mode="normal" in2="BackgroundImageFix" result="effect1_dropShadow_95_18"/>
<feBlend mode="normal" in="SourceGraphic" in2="effect1_dropShadow_95_18" result="shape"/>
</filter>
<clipPath id="clip0_95_18">
<rect width="2401" height="596" fill="white"/>
</clipPath>
</defs>
</svg>
