<svg width="71" height="35" viewBox="0 0 71 35" fill="none" xmlns="http://www.w3.org/2000/svg">
<path d="M48.7213 6.85246H58.1082C58.8657 6.85246 59.5583 7.28046 59.897 7.95803L65.6249 19.4138C65.7638 19.6915 65.8361 19.9977 65.8361 20.3082V28.2787C65.8361 28.831 65.3883 29.2787 64.8361 29.2787H61.1147H48.7213M48.7213 6.85246V2C48.7213 1.44771 48.2736 1 47.7213 1H9C8.44772 1 8 1.44772 8 2V10.3934M48.7213 6.85246V29.2787M8 9.21311V14.5246V28.2787C8 28.831 8.44771 29.2787 9 29.2787H31.0164H48.7213" stroke="#82A5FF" stroke-width="2"/>
<path d="M22 30C22 32.2091 20.2091 34 18 34C15.7909 34 14 32.2091 14 30C14 27.7909 15.7909 26 18 26C20.2091 26 22 27.7909 22 30Z" fill="white" stroke="#82A5FF" stroke-width="2"/>
<circle cx="57" cy="30" r="4" fill="white" stroke="#82A5FF" stroke-width="2"/>
<rect y="9" width="68" height="15" fill="white"/>
<path d="M6.744 15.428H11.784V16.618H6.744V15.428ZM6.87 19.782H12.582V21H5.47V11.2H12.386V12.418H6.87V19.782ZM19.1632 21V19.432L19.0932 19.138V16.464C19.0932 15.8947 18.9252 15.456 18.5892 15.148C18.2625 14.8307 17.7679 14.672 17.1052 14.672C16.6665 14.672 16.2372 14.7467 15.8172 14.896C15.3972 15.036 15.0425 15.2273 14.7532 15.47L14.1932 14.462C14.5759 14.154 15.0332 13.9207 15.5652 13.762C16.1065 13.594 16.6712 13.51 17.2592 13.51C18.2765 13.51 19.0605 13.7573 19.6112 14.252C20.1619 14.7467 20.4372 15.5027 20.4372 16.52V21H19.1632ZM16.7272 21.084C16.1765 21.084 15.6912 20.9907 15.2712 20.804C14.8605 20.6173 14.5432 20.3607 14.3192 20.034C14.0952 19.698 13.9832 19.32 13.9832 18.9C13.9832 18.4987 14.0765 18.1347 14.2632 17.808C14.4592 17.4813 14.7719 17.22 15.2012 17.024C15.6399 16.828 16.2279 16.73 16.9652 16.73H19.3172V17.696H17.0212C16.3492 17.696 15.8965 17.808 15.6632 18.032C15.4299 18.256 15.3132 18.5267 15.3132 18.844C15.3132 19.208 15.4579 19.502 15.7472 19.726C16.0365 19.9407 16.4379 20.048 16.9512 20.048C17.4552 20.048 17.8939 19.936 18.2672 19.712C18.6499 19.488 18.9252 19.1613 19.0932 18.732L19.3592 19.656C19.1819 20.0947 18.8692 20.4447 18.4212 20.706C17.9732 20.958 17.4085 21.084 16.7272 21.084ZM25.0524 21.084C24.4364 21.084 23.8484 21 23.2884 20.832C22.7377 20.664 22.3037 20.4587 21.9864 20.216L22.5464 19.152C22.8637 19.3667 23.2557 19.5487 23.7224 19.698C24.1891 19.8473 24.6651 19.922 25.1504 19.922C25.7757 19.922 26.2237 19.8333 26.4944 19.656C26.7744 19.4787 26.9144 19.2313 26.9144 18.914C26.9144 18.6807 26.8304 18.4987 26.6624 18.368C26.4944 18.2373 26.2704 18.1393 25.9904 18.074C25.7197 18.0087 25.4164 17.9527 25.0804 17.906C24.7444 17.85 24.4084 17.7847 24.0724 17.71C23.7364 17.626 23.4284 17.514 23.1484 17.374C22.8684 17.2247 22.6444 17.024 22.4764 16.772C22.3084 16.5107 22.2244 16.1653 22.2244 15.736C22.2244 15.288 22.3504 14.896 22.6024 14.56C22.8544 14.224 23.2091 13.9673 23.6664 13.79C24.1331 13.6033 24.6837 13.51 25.3184 13.51C25.8037 13.51 26.2937 13.5707 26.7884 13.692C27.2924 13.804 27.7031 13.9673 28.0204 14.182L27.4464 15.246C27.1104 15.022 26.7604 14.868 26.3964 14.784C26.0324 14.7 25.6684 14.658 25.3044 14.658C24.7164 14.658 24.2777 14.756 23.9884 14.952C23.6991 15.1387 23.5544 15.3813 23.5544 15.68C23.5544 15.932 23.6384 16.128 23.8064 16.268C23.9837 16.3987 24.2077 16.5013 24.4784 16.576C24.7584 16.6507 25.0664 16.716 25.4024 16.772C25.7384 16.8187 26.0744 16.884 26.4104 16.968C26.7464 17.0427 27.0497 17.15 27.3204 17.29C27.6004 17.43 27.8244 17.626 27.9924 17.878C28.1697 18.13 28.2584 18.466 28.2584 18.886C28.2584 19.334 28.1277 19.7213 27.8664 20.048C27.6051 20.3747 27.2364 20.6313 26.7604 20.818C26.2844 20.9953 25.7151 21.084 25.0524 21.084ZM30.1233 23.8C29.7687 23.8 29.4233 23.7393 29.0873 23.618C28.7513 23.506 28.462 23.338 28.2193 23.114L28.7933 22.106C28.98 22.2833 29.1853 22.4187 29.4093 22.512C29.6333 22.6053 29.8713 22.652 30.1233 22.652C30.45 22.652 30.7207 22.568 30.9353 22.4C31.15 22.232 31.3507 21.9333 31.5373 21.504L31.9993 20.482L32.1393 20.314L35.0513 13.58H36.3673L32.7693 21.742C32.5547 22.2647 32.312 22.6753 32.0413 22.974C31.78 23.2727 31.4907 23.4827 31.1733 23.604C30.856 23.7347 30.506 23.8 30.1233 23.8ZM31.8873 21.238L28.4993 13.58H29.8993L32.7833 20.188L31.8873 21.238ZM37.8737 21V11.2H44.2997L44.2857 12.418H38.9097L39.2457 12.068L39.2597 21H37.8737ZM48.2692 21.084C47.6532 21.084 47.0885 20.944 46.5752 20.664C46.0712 20.3747 45.6652 19.95 45.3572 19.39C45.0585 18.83 44.9092 18.13 44.9092 17.29C44.9092 16.45 45.0539 15.75 45.3432 15.19C45.6419 14.63 46.0432 14.21 46.5472 13.93C47.0605 13.65 47.6345 13.51 48.2692 13.51C48.9972 13.51 49.6412 13.6687 50.2012 13.986C50.7612 14.3033 51.2045 14.7467 51.5312 15.316C51.8579 15.876 52.0212 16.534 52.0212 17.29C52.0212 18.046 51.8579 18.7087 51.5312 19.278C51.2045 19.8473 50.7612 20.2907 50.2012 20.608C49.6412 20.9253 48.9972 21.084 48.2692 21.084ZM44.3352 23.716V13.58H45.6232V15.582L45.5392 17.304L45.6792 19.026V23.716H44.3352ZM48.1572 19.908C48.6332 19.908 49.0579 19.8007 49.4312 19.586C49.8139 19.3713 50.1125 19.068 50.3272 18.676C50.5512 18.2747 50.6632 17.8127 50.6632 17.29C50.6632 16.758 50.5512 16.3007 50.3272 15.918C50.1125 15.526 49.8139 15.2227 49.4312 15.008C49.0579 14.7933 48.6332 14.686 48.1572 14.686C47.6905 14.686 47.2659 14.7933 46.8832 15.008C46.5099 15.2227 46.2112 15.526 45.9872 15.918C45.7725 16.3007 45.6652 16.758 45.6652 17.29C45.6652 17.8127 45.7725 18.2747 45.9872 18.676C46.2112 19.068 46.5099 19.3713 46.8832 19.586C47.2659 19.8007 47.6905 19.908 48.1572 19.908ZM54.1468 23.8C53.7921 23.8 53.4468 23.7393 53.1108 23.618C52.7748 23.506 52.4855 23.338 52.2428 23.114L52.8168 22.106C53.0035 22.2833 53.2088 22.4187 53.4328 22.512C53.6568 22.6053 53.8948 22.652 54.1468 22.652C54.4735 22.652 54.7441 22.568 54.9588 22.4C55.1735 22.232 55.3741 21.9333 55.5608 21.504L56.0228 20.482L56.1628 20.314L59.0748 13.58H60.3908L56.7928 21.742C56.5781 22.2647 56.3355 22.6753 56.0648 22.974C55.8035 23.2727 55.5141 23.4827 55.1968 23.604C54.8795 23.7347 54.5295 23.8 54.1468 23.8ZM55.9108 21.238L52.5228 13.58H53.9228L56.8068 20.188L55.9108 21.238ZM63.7591 21.098C64.4124 21.098 64.9911 21.0047 65.4951 20.818C66.0084 20.622 66.4144 20.356 66.7131 20.02C67.0118 19.6747 67.1611 19.278 67.1611 18.83C67.1611 18.27 66.9231 17.8267 66.4471 17.5C65.9711 17.1733 65.3178 17.01 64.4871 17.01L64.4311 17.332C64.9164 17.332 65.3458 17.2527 65.7191 17.094C66.0924 16.9353 66.3911 16.7207 66.6151 16.45C66.8391 16.17 66.9511 15.8527 66.9511 15.498C66.9511 15.078 66.8018 14.714 66.5031 14.406C66.2138 14.098 65.8171 13.8647 65.3131 13.706C64.8091 13.538 64.2351 13.4633 63.5911 13.482C63.1618 13.4913 62.7278 13.5567 62.2891 13.678C61.8598 13.79 61.4211 13.9533 60.9731 14.168L61.3371 15.218C61.7384 15.022 62.1304 14.8773 62.5131 14.784C62.9051 14.6907 63.2878 14.6393 63.6611 14.63C64.0438 14.63 64.3751 14.672 64.6551 14.756C64.9444 14.84 65.1684 14.9613 65.3271 15.12C65.4858 15.2787 65.5651 15.47 65.5651 15.694C65.5651 15.8993 65.4951 16.0813 65.3551 16.24C65.2244 16.3893 65.0378 16.5013 64.7951 16.576C64.5524 16.6507 64.2678 16.688 63.9411 16.688H62.6811V17.654H64.0251C64.5758 17.654 65.0051 17.7473 65.3131 17.934C65.6211 18.1207 65.7751 18.3867 65.7751 18.732C65.7751 18.9747 65.6911 19.1893 65.5231 19.376C65.3551 19.5533 65.1124 19.6933 64.7951 19.796C64.4871 19.8987 64.1184 19.95 63.6891 19.95C63.2224 19.95 62.7604 19.8893 62.3031 19.768C61.8458 19.6373 61.4398 19.46 61.0851 19.236L60.6791 20.258C61.0991 20.5287 61.5751 20.7387 62.1071 20.888C62.6484 21.028 63.1991 21.098 63.7591 21.098Z" fill="#82A5FF"/>
</svg>
