<svg width="26" height="26" viewBox="0 0 26 26" fill="none" xmlns="http://www.w3.org/2000/svg">
<path d="M12.075 13.9846L11.5058 14.8068L12.075 13.9846ZM13.925 13.9846L14.4942 14.8068L13.925 13.9846ZM4.0625 6.6875H21.9375V4.6875H4.0625V6.6875ZM22.5625 7.3125V18.6875H24.5625V7.3125H22.5625ZM21.9375 19.3125H4.0625V21.3125H21.9375V19.3125ZM3.4375 18.6875V7.3125H1.4375V18.6875H3.4375ZM4.0625 19.3125C3.71732 19.3125 3.4375 19.0327 3.4375 18.6875H1.4375C1.4375 20.1372 2.61275 21.3125 4.0625 21.3125V19.3125ZM22.5625 18.6875C22.5625 19.0327 22.2827 19.3125 21.9375 19.3125V21.3125C23.3872 21.3125 24.5625 20.1372 24.5625 18.6875H22.5625ZM21.9375 6.6875C22.2827 6.6875 22.5625 6.96732 22.5625 7.3125H24.5625C24.5625 5.86275 23.3872 4.6875 21.9375 4.6875V6.6875ZM4.0625 4.6875C2.61275 4.6875 1.4375 5.86275 1.4375 7.3125H3.4375C3.4375 6.96732 3.71732 6.6875 4.0625 6.6875V4.6875ZM1.86829 8.13469L11.5058 14.8068L12.6442 13.1624L3.00671 6.49031L1.86829 8.13469ZM14.4942 14.8068L24.1317 8.13469L22.9933 6.49031L13.3558 13.1624L14.4942 14.8068ZM11.5058 14.8068C12.4047 15.4292 13.5953 15.4292 14.4942 14.8068L13.3558 13.1624C13.1417 13.3106 12.8583 13.3106 12.6442 13.1624L11.5058 14.8068Z" fill="#82A5FF"/>
</svg>
